<svg width="25" height="25" viewBox="0 0 25 25" fill="none" xmlns="http://www.w3.org/2000/svg">
<path d="M23.9583 6.20937C23.9583 4.48646 22.5562 3.08437 20.8333 3.08437H10.4167C8.69375 3.08437 7.29167 4.48646 7.29167 6.20937V16.626H23.9583V6.20937ZM14.5833 5.16771H16.6667V8.29271H14.5833V5.16771ZM21.875 14.5427H9.375V6.20937C9.375 5.63542 9.84167 5.16771 10.4167 5.16771H12.5V10.376H18.75V5.16771H20.8333C21.4083 5.16771 21.875 5.63542 21.875 6.20937V14.5427ZM6.25 18.749C5.675 18.749 5.20833 18.2823 5.20833 17.7073V3.125C5.20833 1.40104 3.80625 0 2.08333 0H0V2.08333H2.08333C2.65833 2.08333 3.125 2.55104 3.125 3.125V17.7083C3.125 19.4312 4.52708 20.8333 6.25 20.8333V21.3542C6.25 23.3646 7.88542 25 9.89583 25C11.9062 25 13.5417 23.3646 13.5417 21.3542V20.8333H16.6667V21.3542C16.6667 23.3646 18.3021 25 20.3125 25C22.3229 25 23.9583 23.3646 23.9583 21.3542V20.8333H25V18.75L6.25 18.749ZM11.4583 21.3531C11.4583 22.2146 10.7573 22.9156 9.89583 22.9156C9.03437 22.9156 8.33333 22.2146 8.33333 21.3531V20.8323H11.4583V21.3531ZM21.875 21.3531C21.875 22.2146 21.174 22.9156 20.3125 22.9156C19.451 22.9156 18.75 22.2146 18.75 21.3531V20.8323H21.875V21.3531Z" fill="black"/>
</svg>
