<svg width="25" height="25" viewBox="0 0 25 25" fill="none" xmlns="http://www.w3.org/2000/svg">
<g clip-path="url(#clip0_245_110)">
<path d="M17.7083 14.5834C17.7083 14.8596 17.5986 15.1246 17.4032 15.3199C17.2079 15.5153 16.9429 15.625 16.6667 15.625H8.33334C8.05708 15.625 7.79212 15.5153 7.59677 15.3199C7.40142 15.1246 7.29168 14.8596 7.29168 14.5834C7.29168 14.3071 7.40142 14.0421 7.59677 13.8468C7.79212 13.6514 8.05708 13.5417 8.33334 13.5417H16.6667C16.9429 13.5417 17.2079 13.6514 17.4032 13.8468C17.5986 14.0421 17.7083 14.3071 17.7083 14.5834ZM13.5417 17.7084H8.33334C8.05708 17.7084 7.79212 17.8181 7.59677 18.0135C7.40142 18.2088 7.29168 18.4738 7.29168 18.75C7.29168 19.0263 7.40142 19.2912 7.59677 19.4866C7.79212 19.6819 8.05708 19.7917 8.33334 19.7917H13.5417C13.8179 19.7917 14.0829 19.6819 14.2782 19.4866C14.4736 19.2912 14.5833 19.0263 14.5833 18.75C14.5833 18.4738 14.4736 18.2088 14.2782 18.0135C14.0829 17.8181 13.8179 17.7084 13.5417 17.7084ZM22.9167 10.9219V19.7917C22.915 21.1725 22.3658 22.4963 21.3894 23.4727C20.413 24.4491 19.0892 24.9984 17.7083 25H7.29168C5.91085 24.9984 4.58705 24.4491 3.61066 23.4727C2.63426 22.4963 2.085 21.1725 2.08334 19.7917V5.20836C2.085 3.82753 2.63426 2.50373 3.61066 1.52734C4.58705 0.550943 5.91085 0.00167803 7.29168 2.4009e-05H11.9948C12.9527 -0.00244154 13.9017 0.185011 14.7867 0.551544C15.6717 0.918077 16.4753 1.45642 17.1511 2.13544L20.7802 5.76669C21.4596 6.44194 21.9983 7.24529 22.365 8.13021C22.7318 9.01512 22.9193 9.96401 22.9167 10.9219ZM15.6781 3.60836C15.3503 3.29082 14.9822 3.01765 14.5833 2.79586V7.29169C14.5833 7.56796 14.6931 7.83291 14.8884 8.02826C15.0838 8.22361 15.3487 8.33336 15.625 8.33336H20.1208C19.8989 7.9346 19.6254 7.56684 19.3073 7.23961L15.6781 3.60836ZM20.8333 10.9219C20.8333 10.75 20.8 10.5854 20.7844 10.4167H15.625C14.7962 10.4167 14.0014 10.0875 13.4153 9.5014C12.8292 8.91535 12.5 8.12049 12.5 7.29169V2.13232C12.3313 2.11669 12.1656 2.08336 11.9948 2.08336H7.29168C6.46288 2.08336 5.66802 2.4126 5.08197 2.99865C4.49592 3.5847 4.16668 4.37956 4.16668 5.20836V19.7917C4.16668 20.6205 4.49592 21.4153 5.08197 22.0014C5.66802 22.5875 6.46288 22.9167 7.29168 22.9167H17.7083C18.5371 22.9167 19.332 22.5875 19.9181 22.0014C20.5041 21.4153 20.8333 20.6205 20.8333 19.7917V10.9219Z" fill="black"/>
</g>
<defs>
<clipPath id="clip0_245_110">
<rect width="25" height="25" fill="white"/>
</clipPath>
</defs>
</svg>
