<svg width="25" height="25" viewBox="0 0 25 25" fill="none" xmlns="http://www.w3.org/2000/svg">
<g clip-path="url(#clip0_245_78)">
<path d="M7.29167 6.24996H23.9583C24.2346 6.24996 24.4996 6.14021 24.6949 5.94486C24.8903 5.74951 25 5.48456 25 5.20829C25 4.93203 24.8903 4.66707 24.6949 4.47172C24.4996 4.27637 24.2346 4.16663 23.9583 4.16663H7.29167C7.0154 4.16663 6.75045 4.27637 6.5551 4.47172C6.35975 4.66707 6.25 4.93203 6.25 5.20829C6.25 5.48456 6.35975 5.74951 6.5551 5.94486C6.75045 6.14021 7.0154 6.24996 7.29167 6.24996Z" fill="black"/>
<path d="M23.9583 11.4584H7.29167C7.0154 11.4584 6.75045 11.5681 6.5551 11.7635C6.35975 11.9588 6.25 12.2238 6.25 12.5C6.25 12.7763 6.35975 13.0413 6.5551 13.2366C6.75045 13.432 7.0154 13.5417 7.29167 13.5417H23.9583C24.2346 13.5417 24.4996 13.432 24.6949 13.2366C24.8903 13.0413 25 12.7763 25 12.5C25 12.2238 24.8903 11.9588 24.6949 11.7635C24.4996 11.5681 24.2346 11.4584 23.9583 11.4584Z" fill="black"/>
<path d="M23.9583 18.75H7.29167C7.0154 18.75 6.75045 18.8597 6.5551 19.0551C6.35975 19.2504 6.25 19.5154 6.25 19.7917C6.25 20.0679 6.35975 20.3329 6.5551 20.5282C6.75045 20.7236 7.0154 20.8333 7.29167 20.8333H23.9583C24.2346 20.8333 24.4996 20.7236 24.6949 20.5282C24.8903 20.3329 25 20.0679 25 19.7917C25 19.5154 24.8903 19.2504 24.6949 19.0551C24.4996 18.8597 24.2346 18.75 23.9583 18.75Z" fill="black"/>
<path d="M2.08333 7.29167C3.23393 7.29167 4.16667 6.35893 4.16667 5.20833C4.16667 4.05774 3.23393 3.125 2.08333 3.125C0.93274 3.125 0 4.05774 0 5.20833C0 6.35893 0.93274 7.29167 2.08333 7.29167Z" fill="black"/>
<path d="M2.08333 14.5833C3.23393 14.5833 4.16667 13.6506 4.16667 12.5C4.16667 11.3494 3.23393 10.4166 2.08333 10.4166C0.93274 10.4166 0 11.3494 0 12.5C0 13.6506 0.93274 14.5833 2.08333 14.5833Z" fill="black"/>
<path d="M2.08333 21.875C3.23393 21.875 4.16667 20.9423 4.16667 19.7917C4.16667 18.6411 3.23393 17.7084 2.08333 17.7084C0.93274 17.7084 0 18.6411 0 19.7917C0 20.9423 0.93274 21.875 2.08333 21.875Z" fill="black"/>
</g>
<defs>
<clipPath id="clip0_245_78">
<rect width="25" height="25" fill="white"/>
</clipPath>
</defs>
</svg>
