<svg width="24" height="24" viewBox="0 0 24 24" fill="none" xmlns="http://www.w3.org/2000/svg">
<g clip-path="url(#clip0_245_95)">
<path d="M18.66 20.9C18.25 20.53 17.61 20.57 17.25 20.99C16.68 21.64 15.86 22.01 15 22.01H5C3.35 22.01 2 20.66 2 19.01V5C2 3.35 3.35 2 5 2H9.51C9.67 2 9.84 2 10 2.02V7C10 8.65 11.35 10 13 10H18.81C19.12 10 19.41 9.86 19.6 9.61C19.79 9.36 19.85 9.05 19.78 8.75C19.47 7.53 18.84 6.42 17.95 5.53L14.47 2.05C13.15 0.73 11.39 0 9.52 0H5C2.24 0 0 2.24 0 5V19C0 21.76 2.24 24 5 24H15C16.43 24 17.8 23.38 18.75 22.31C19.12 21.9 19.08 21.26 18.66 20.9ZM12 2.66C12.38 2.88 12.73 3.15 13.05 3.47L16.53 6.95C16.84 7.26 17.11 7.62 17.33 8H12.99C12.44 8 11.99 7.55 11.99 7V2.66H12ZM23.13 18.09L21.52 19.7C21.32 19.9 21.07 19.99 20.81 19.99C20.55 19.99 20.3 19.89 20.1 19.7C19.71 19.31 19.71 18.68 20.1 18.29L21.39 17H13.99C13.44 17 12.99 16.55 12.99 16C12.99 15.45 13.44 15 13.99 15H21.39L20.1 13.71C19.71 13.32 19.71 12.69 20.1 12.3C20.49 11.91 21.12 11.91 21.51 12.3L23.12 13.91C24.27 15.06 24.27 16.94 23.12 18.1L23.13 18.09Z" fill="black"/>
</g>
<defs>
<clipPath id="clip0_245_95">
<rect width="24" height="24" fill="white"/>
</clipPath>
</defs>
</svg>
